<svg width="41" height="41" viewBox="0 0 41 41" fill="none" xmlns="http://www.w3.org/2000/svg">
<path d="M32.0625 6.75H28.6875V5.0625C28.6875 4.61495 28.5097 4.18572 28.1932 3.86926C27.8768 3.55279 27.4476 3.375 27 3.375C26.5524 3.375 26.1232 3.55279 25.8068 3.86926C25.4903 4.18572 25.3125 4.61495 25.3125 5.0625V6.75H15.1875V5.0625C15.1875 4.61495 15.0097 4.18572 14.6932 3.86926C14.3768 3.55279 13.9476 3.375 13.5 3.375C13.0524 3.375 12.6232 3.55279 12.3068 3.86926C11.9903 4.18572 11.8125 4.61495 11.8125 5.0625V6.75H8.4375C7.09484 6.75 5.80717 7.28337 4.85777 8.23277C3.90837 9.18217 3.375 10.4698 3.375 11.8125V32.0625C3.375 33.4052 3.90837 34.6928 4.85777 35.6422C5.80717 36.5916 7.09484 37.125 8.4375 37.125H32.0625C33.4052 37.125 34.6928 36.5916 35.6422 35.6422C36.5916 34.6928 37.125 33.4052 37.125 32.0625V11.8125C37.125 10.4698 36.5916 9.18217 35.6422 8.23277C34.6928 7.28337 33.4052 6.75 32.0625 6.75ZM33.75 32.0625C33.75 32.5101 33.5722 32.9393 33.2557 33.2557C32.9393 33.5722 32.5101 33.75 32.0625 33.75H8.4375C7.98995 33.75 7.56073 33.5722 7.24426 33.2557C6.92779 32.9393 6.75 32.5101 6.75 32.0625V20.25H33.75V32.0625ZM33.75 16.875H6.75V11.8125C6.75 11.3649 6.92779 10.9357 7.24426 10.6193C7.56073 10.3028 7.98995 10.125 8.4375 10.125H11.8125V11.8125C11.8125 12.2601 11.9903 12.6893 12.3068 13.0057C12.6232 13.3222 13.0524 13.5 13.5 13.5C13.9476 13.5 14.3768 13.3222 14.6932 13.0057C15.0097 12.6893 15.1875 12.2601 15.1875 11.8125V10.125H25.3125V11.8125C25.3125 12.2601 25.4903 12.6893 25.8068 13.0057C26.1232 13.3222 26.5524 13.5 27 13.5C27.4476 13.5 27.8768 13.3222 28.1932 13.0057C28.5097 12.6893 28.6875 12.2601 28.6875 11.8125V10.125H32.0625C32.5101 10.125 32.9393 10.3028 33.2557 10.6193C33.5722 10.9357 33.75 11.3649 33.75 11.8125V16.875Z" fill="white"/>
</svg>
