<svg width="30" height="30" viewBox="0 0 30 30" fill="none" xmlns="http://www.w3.org/2000/svg">
<path fill-rule="evenodd" clip-rule="evenodd" d="M19.797 1.83001L4.67995 16.947C4.45397 17.1724 4.30579 17.4641 4.25695 17.7795L3.19945 24.6705C3.16377 24.9032 3.18338 25.1411 3.25669 25.3649C3.33001 25.5886 3.45497 25.792 3.62147 25.9585C3.78797 26.125 3.99132 26.2499 4.21508 26.3233C4.43884 26.3966 4.67671 26.4162 4.90945 26.3805L11.802 25.323C12.1172 25.2746 12.4088 25.1269 12.6345 24.9015L27.7515 9.78451C28.0327 9.50321 28.1906 9.12175 28.1906 8.72401C28.1906 8.32626 28.0327 7.9448 27.7515 7.66351L21.9165 1.82851C21.6352 1.54776 21.2541 1.39008 20.8567 1.39008C20.4593 1.39008 20.0782 1.54776 19.797 1.82851M6.47545 23.106L7.14745 18.72L20.8575 5.01001L24.57 8.72401L10.86 22.434L6.47545 23.106Z" fill="white"/>
<path d="M17.1628 7.87049L18.7528 6.27899L23.6158 11.139L22.0243 12.7305L17.1628 7.87049Z" fill="white"/>
</svg>
