<svg width="55" height="55" viewBox="0 0 55 55" fill="none" xmlns="http://www.w3.org/2000/svg">
<path fill-rule="evenodd" clip-rule="evenodd" d="M35.9988 0.953183L3.24529 33.7067C2.75565 34.1951 2.43459 34.827 2.32879 35.5104L0.0375393 50.4409C-0.0397771 50.9452 0.00270921 51.4606 0.161559 51.9454C0.320408 52.4302 0.591159 52.8708 0.951903 53.2316C1.31265 53.5923 1.75325 53.8631 2.23806 54.0219C2.72287 54.1808 3.23826 54.2232 3.74254 54.1459L18.6763 51.8547C19.3593 51.7498 19.9912 51.4299 20.48 50.9414L53.2335 18.1879C53.8428 17.5785 54.1851 16.752 54.1851 15.8902C54.1851 15.0284 53.8428 14.2019 53.2335 13.5924L40.591 0.949933C39.9817 0.341645 39.1559 0 38.2949 0C37.4339 0 36.6081 0.341645 35.9988 0.949933M7.13554 47.0512L8.59154 37.5482L38.2965 7.84318L46.3403 15.8902L16.6353 45.5952L7.13554 47.0512Z" fill="black"/>
<path d="M30.2917 14.0409L33.7367 10.5927L44.2732 21.1227L40.825 24.5709L30.2917 14.0409Z" fill="black"/>
</svg>
