<?xml version="1.0" encoding="UTF-8"?>
<svg id="Calque_2" data-name="Calque 2" xmlns="http://www.w3.org/2000/svg" viewBox="0 0 177.43 64.94">
  <g id="Calque_1-2" data-name="Calque 1">
    <g>
      <path d="M38.1,8.47c4.3-.07,9.57-.77,10.35,4.78l.03,43.77c-.38,3.43-2.5,4.94-5.82,5.18-11.88.89-24.84-.69-36.84,0-3.31-.25-5.48-1.72-5.82-5.18V13.43c.6-5.74,5.99-5.06,10.38-4.96-.26-4.31,4.2-2.87,6.98-3.28.77-.72.93-1.74,1.61-2.62,2.54-3.31,7.66-3.44,10.33-.21.56.67,1.39,2.73,1.97,2.9,2.37.69,6.95-1.45,6.83,3.22ZM22.5,4.72c-1.99,2.25,1.78,5.39,3.53,2.79,1.63-2.42-1.83-4.72-3.53-2.79ZM11.19,12.3c-1.9.29-6.95-1.08-7.37,1.57l-.02,42.52c-.04,1.47,1.19,1.9,2.43,2.01h35.78c.96-.08,1.75-.23,2.32-1.07l.12-43.26c-.18-3.01-5-1.4-7.07-1.76-.76.26-.25,3.25-2.99,3.57-6.51-.47-13.92.63-20.32.01-2.22-.22-2.35-1.75-2.87-3.58Z" fill="#fff"/>
      <path d="M77.67,30.25v-1.69c-3.48,2.79-9.68,2.79-13.27.26-6.92-4.88-6.1-17.32,2-20.52,5.54-2.18,12.62-.22,14.44,5.87l-4.64,1.05c-.73-3.21-4.55-4.23-7.41-3.26-4.81,1.63-5.68,8.75-2.66,12.37s10.46,2.96,10.9-2.33l-5.92.21v-4.02h10.16v12.06h-3.6Z" fill="#ff66d6"/>
      <path d="M100.52,42.73v1.48c5.33-4.77,12.57-.26,12.5,6.46-.06,5.64-5.41,10.45-10.95,7.76-.79-.38-1.03-1.04-1.76-1.3.44.68.02,1.28,0,2-.07,1.8.14,3.61.13,5.39,0,.25-.01.27-.23.43h-3.91v-22.42c.16-.06.25.21.32.21h3.91ZM103.43,46.17c-4.49.76-4.25,10.06,2.01,8.99,4.51-.77,4.5-10.1-2.01-8.99Z" fill="#fff"/>
      <path d="M65.18,51.41v7.19h-4.44v-22h9.84c2.48,0,5.47,2.65,6.25,4.96,1.82,5.4-2.35,9.84-7.73,9.84h-3.91ZM65.18,47.39h4.55c.09,0,1.26-.55,1.45-.67,1.62-1.05,2.1-3.1.99-4.73-.41-.6-1.71-1.58-2.44-1.58h-4.55v6.98Z" fill="#ff66d6"/>
      <path d="M99.89,23.27h-12.06c.14,3.41,4.32,5.28,6.89,2.97.37-.33.47-.86.52-.86h4.23c-.44,3.22-3.61,5.1-6.66,5.3-12.46.81-12.13-18.38.36-16.87,4.81.58,6.97,5,6.72,9.46ZM95.44,20.31c-.61-4.42-6.88-4.19-7.41,0h7.41Z" fill="#fff"/>
      <path d="M143.01,13.81c11.95-1.44,13.28,15.79,2.24,16.84-11.55,1.1-12.73-15.57-2.24-16.84ZM141.44,18.69c-2.66,2.64-1.29,8.11,2.78,8.19,6.21.12,5.64-10.65-.96-9.23-.57.12-1.41.64-1.82,1.04Z" fill="#fff"/>
      <path d="M92.9,58.6h-4.02l-.1-1.48c-2.56,3.17-9.88,2.61-10.46-2.03-.51-4.11,2.78-5.56,6.23-6.01,1.42-.19,5.43.44,3.7-2.22-1.04-1.61-3.83-1.54-4.97-.1-.23.29-.28.84-.32.84h-4.02c.57-4.9,6.14-6.31,10.22-4.82,1.93.7,3.75,2.8,3.75,4.92v10.89ZM88.67,51.41c-1.57.39-5.62-.1-6.09,2.06-.71,3.22,5.54,3.25,6.08-.49.07-.52,0-1.05.02-1.57Z" fill="#fff"/>
      <path d="M177.33,51.83h-11.85c.53,2.86,2.73,4.43,5.62,3.61,1.15-.33,1.77-1.49,1.89-1.49h4.13c-2.72,8.13-14.98,6.29-15.66-2.44-.96-12.47,17.42-12.21,15.87.32ZM172.89,48.87c-.19-4.53-6.55-4.24-7.2-.11l7.2.11Z" fill="#fff"/>
      <path d="M121.63,42.37c6.31-.77,10.58,3.66,9.73,9.93s-9.13,8.77-13.89,4.9c-5.52-4.48-3.06-13.96,4.17-14.84ZM126.05,47.25c-1.95-2.1-5.84-1.34-6.87,1.34-1.42,3.69,1.38,7.99,5.4,6.45,2.9-1.11,3.49-5.63,1.47-7.8Z" fill="#fff"/>
      <path d="M170.14,30.25h-4.23v-9.62c0-.07-.31-1.15-.38-1.32-.87-2.15-4.03-2.45-5.3-.55-.12.18-.67,1.36-.67,1.45v10.05h-4.23V14.18h4.23l.11,1.91c1.78-3.21,7.06-3.03,9.17-.28.49.64,1.31,2.39,1.31,3.14v11.32Z" fill="#fff"/>
      <path d="M144.11,42.52c.08-.11.27.21.32.21h3.39c.07,0,.13-.2.21-.21l.21.21c.24.15-.11.24-.11.32v15.23c0,.06.27.16.21.32h-4.23v-1.9c-2.19,3.07-7.58,3.32-9.63,0-.56-.91-1.16-2.67-1.16-3.71v-10.15c.16-.22.18-.23.43-.23,1.12,0,2.42.36,3.58,0l.43.23v10.15c0,.17.59,1.16.76,1.35,1.55,1.7,4.34.95,5.18-1.13.07-.17.41-1.41.41-1.49v-9.2Z" fill="#fff"/>
      <path d="M114.7,18.62h-4.02c-.1,0-.18-1.16-1.11-1.53-1.43-.58-3.93-.17-3.54,1.84.12.59.52.69,1,.91,2.63,1.2,7.52.61,8.08,4.61,1.1,7.91-13.2,8.51-13.52.93h4.02c.02,3,6.91,2.35,5.3-.33-1.02-1.7-7.48-.55-8.8-4.53-2.59-7.82,12.19-9.53,12.59-1.91Z" fill="#fff"/>
      <path d="M122.95,9.95v4.23h3.6v3.6l-3.29-.16-.31.27v7.62c0,.05.46.85.54.94.69.74,2.13.34,3.06.43v3.38c-2.31.28-5.26.53-6.88-1.48-.24-.29-.95-1.53-.95-1.8v-9.2h-2.54v-3.6h2.54v-4.23h4.23Z" fill="#fff"/>
      <path d="M156.81,38.5v4.23h3.28c.06,0,.16-.27.32-.21v3.6h-3.6v8.14c0,1.12,2.79,1.5,3.6.95v3.38c-1.99.42-5.46.47-6.87-1.28-.16-.19-.96-1.87-.96-2v-9.2h-2.75c.34-.82.22-1.77.22-2.65,0-.37-.46-.89.22-.86l2.31.13v-4.23h4.23Z" fill="#fff"/>
      <rect x="129.09" y="14.18" width="4.23" height="16.08" fill="#fff"/>
      <path d="M133.04,11.35c-2.88,2.71-6.48-2.53-3.1-4.05,3.01-1.36,5.09,2.18,3.1,4.05Z" fill="#fff"/>
      <path d="M11.19,12.3c.52,1.83.65,3.36,2.87,3.58,6.41.62,13.81-.49,20.32-.01,2.74-.31,2.23-3.31,2.99-3.57,2.07.36,6.89-1.25,7.07,1.76l-.12,43.26c-.56.84-1.36.99-2.32,1.07H6.24c-1.25-.11-2.47-.54-2.43-2.01l.02-42.52c.42-2.65,5.46-1.28,7.37-1.57ZM36.35,24.16c-.31.07-.57.27-.79.48l-14.7,15.34c-.48,0-5.57-6.21-6.91-6.63-1.95-.6-3.53,1.31-2.77,3.19.12.3.84,1.12,1.1,1.43,1.04,1.24,6.09,6.48,7.21,7.18,2.25,1.41,4.27-1.48,5.71-2.95,4.54-4.62,8.81-9.53,13.42-14.09,1.43-1.76.02-4.46-2.27-3.96Z" fill="none"/>
      <path d="M22.5,4.72c1.7-1.93,5.16.37,3.53,2.79-1.75,2.6-5.52-.54-3.53-2.79Z" fill="#fff"/>
      <path d="M103.43,46.17c6.51-1.11,6.52,8.22,2.01,8.99-6.26,1.07-6.51-8.23-2.01-8.99Z" fill="none"/>
      <path d="M65.18,47.39v-6.98h4.55c.72,0,2.02.98,2.44,1.58,1.11,1.63.64,3.68-.99,4.73-.19.12-1.35.67-1.45.67h-4.55Z" fill="none"/>
      <path d="M95.44,20.31h-7.41c.53-4.19,6.8-4.42,7.41,0Z" fill="none"/>
      <path d="M141.44,18.69c.4-.4,1.25-.92,1.82-1.04,6.6-1.42,7.17,9.35.96,9.23-4.07-.08-5.44-5.55-2.78-8.19Z" fill="none"/>
      <path d="M88.67,51.41c-.02.52.06,1.05-.02,1.57-.54,3.74-6.79,3.71-6.08.49.47-2.15,4.52-1.66,6.09-2.06Z" fill="none"/>
      <path d="M172.89,48.87l-7.2-.11c.65-4.13,7.01-4.42,7.2.11Z" fill="none"/>
      <path d="M126.05,47.25c2.01,2.16,1.43,6.68-1.47,7.8-4.01,1.54-6.81-2.77-5.4-6.45,1.03-2.68,4.91-3.44,6.87-1.34Z" fill="none"/>
      <path d="M36.35,24.16c2.29-.5,3.69,2.21,2.27,3.96-4.61,4.56-8.88,9.46-13.42,14.09-1.44,1.46-3.46,4.36-5.71,2.95-1.12-.7-6.17-5.94-7.21-7.18-.27-.32-.98-1.13-1.1-1.43-.76-1.89.82-3.8,2.77-3.19,1.34.42,6.43,6.63,6.91,6.63l14.7-15.34c.22-.21.48-.42.79-.48Z" fill="#ff66d6"/>
    </g>
  </g>
</svg>