<svg width="45" height="54" viewBox="0 0 45 54" fill="none" xmlns="http://www.w3.org/2000/svg">
<path fill-rule="evenodd" clip-rule="evenodd" d="M15.105 10.125V5.0625H29.415V10.125H15.105ZM10.335 10.125V3.375C10.335 2.47989 10.67 1.62145 11.2664 0.988515C11.8628 0.355579 12.6716 0 13.515 0L31.005 0C31.8484 0 32.6572 0.355579 33.2536 0.988515C33.85 1.62145 34.185 2.47989 34.185 3.375V10.125H42.135C42.7675 10.125 43.3742 10.3917 43.8214 10.8664C44.2687 11.3411 44.52 11.9849 44.52 12.6562C44.52 13.3276 44.2687 13.9714 43.8214 14.4461C43.3742 14.9208 42.7675 15.1875 42.135 15.1875H40.9743L38.6116 47.7664C38.489 49.4621 37.7677 51.0463 36.5921 52.202C35.4165 53.3577 33.8731 53.9999 32.2706 54H12.2494C10.6469 53.9999 9.10351 53.3577 7.92788 52.202C6.75225 51.0463 6.03103 49.4621 5.90844 47.7664L3.5457 15.1875H2.385C1.75246 15.1875 1.14582 14.9208 0.69855 14.4461C0.251276 13.9714 0 13.3276 0 12.6562C0 11.9849 0.251276 11.3411 0.69855 10.8664C1.14582 10.3917 1.75246 10.125 2.385 10.125H10.335ZM8.3316 15.1875H36.1884L33.8543 47.3783C33.8238 47.8021 33.6438 48.1981 33.3503 48.4871C33.0567 48.7762 32.6711 48.937 32.2706 48.9375H12.2494C11.8489 48.937 11.4633 48.7762 11.1697 48.4871C10.8762 48.1981 10.6962 47.8021 10.6657 47.3783L8.3316 15.1875Z" fill="black"/>
</svg>
