<svg width="25" height="25" viewBox="0 0 25 25" fill="none" xmlns="http://www.w3.org/2000/svg">
<path fill-rule="evenodd" clip-rule="evenodd" d="M9.125 4.6875V2.34375H15.875V4.6875H9.125ZM6.875 4.6875V1.5625C6.875 1.1481 7.03304 0.750671 7.31434 0.457646C7.59564 0.16462 7.97718 0 8.375 0L16.625 0C17.0228 0 17.4044 0.16462 17.6857 0.457646C17.967 0.750671 18.125 1.1481 18.125 1.5625V4.6875H21.875C22.1734 4.6875 22.4595 4.81096 22.6705 5.03073C22.8815 5.2505 23 5.54857 23 5.85938C23 6.17018 22.8815 6.46825 22.6705 6.68802C22.4595 6.90779 22.1734 7.03125 21.875 7.03125H21.3275L20.213 22.1141C20.1552 22.8991 19.815 23.6325 19.2604 24.1676C18.7059 24.7027 17.9779 24.9999 17.222 25H7.778C7.02211 24.9999 6.29411 24.7027 5.73957 24.1676C5.18503 23.6325 4.84483 22.8991 4.787 22.1141L3.6725 7.03125H3.125C2.82663 7.03125 2.54048 6.90779 2.3295 6.68802C2.11853 6.46825 2 6.17018 2 5.85938C2 5.54857 2.11853 5.2505 2.3295 5.03073C2.54048 4.81096 2.82663 4.6875 3.125 4.6875H6.875ZM5.93 7.03125H19.07L17.969 21.9344C17.9546 22.1306 17.8697 22.3139 17.7313 22.4477C17.5928 22.5816 17.4109 22.656 17.222 22.6562H7.778C7.5891 22.656 7.40723 22.5816 7.26875 22.4477C7.13026 22.3139 7.04536 22.1306 7.031 21.9344L5.93 7.03125Z" fill="white"/>
</svg>
